<?xml version="1.0" encoding="utf-8"?>
<!-- Generator: Adobe Illustrator 18.0.0, SVG Export Plug-In . SVG Version: 6.00 Build 0)  -->
<!DOCTYPE svg PUBLIC "-//W3C//DTD SVG 1.1//EN" "http://www.w3.org/Graphics/SVG/1.1/DTD/svg11.dtd">
<svg version="1.1" id="Layer_1" xmlns="http://www.w3.org/2000/svg" xmlns:xlink="http://www.w3.org/1999/xlink" x="0px" y="0px"
	 viewBox="0 0 38 38" enable-background="new 0 0 38 38" xml:space="preserve">
<g>
	<path fill="#8F95A0" d="M19,36c-8.8,0-16-7.2-16-16S10.2,4,19,4s16,7.2,16,16S27.8,36,19,36z M19,6C11.3,6,5,12.3,5,20
		s6.3,14,14,14s14-6.3,14-14S26.7,6,19,6z"/>
</g>
<g>
	<path fill="#8F95A0" d="M13,26c-0.6,0-1-0.4-1-1V15c0-0.6,0.4-1,1-1s1,0.4,1,1v10C14,25.6,13.6,26,13,26z"/>
</g>
<g>
	<path fill="#8F95A0" d="M25,21H13c-0.6,0-1-0.4-1-1s0.4-1,1-1h12c0.6,0,1,0.4,1,1S25.6,21,25,21z"/>
</g>
<g>
	<circle fill="#8F95A0" cx="13" cy="14.4" r="2"/>
</g>
<g>
	<circle fill="#8F95A0" cx="13" cy="25.4" r="2"/>
</g>
<g>
	<path fill="#8F95A0" d="M19,26c-0.6,0-1-0.4-1-1V15c0-0.6,0.4-1,1-1s1,0.4,1,1v10C20,25.6,19.6,26,19,26z"/>
</g>
<g>
	<circle fill="#8F95A0" cx="19" cy="14.4" r="2"/>
</g>
<g>
	<circle fill="#8F95A0" cx="19" cy="25.4" r="2"/>
</g>
<g>
	<path fill="#8F95A0" d="M25,26c-0.6,0-1-0.4-1-1V15c0-0.6,0.4-1,1-1s1,0.4,1,1v10C26,25.6,25.6,26,25,26z"/>
</g>
<g>
	<circle fill="#8F95A0" cx="25" cy="14.4" r="2"/>
</g>
<g>
	<circle fill="#8F95A0" cx="25" cy="25.4" r="2"/>
</g>
</svg>
