<?xml version="1.0" encoding="utf-8"?>
<!-- Generator: Adobe Illustrator 18.0.0, SVG Export Plug-In . SVG Version: 6.00 Build 0)  -->
<!DOCTYPE svg PUBLIC "-//W3C//DTD SVG 1.1//EN" "http://www.w3.org/Graphics/SVG/1.1/DTD/svg11.dtd">
<svg version="1.1" id="Layer_1" xmlns="http://www.w3.org/2000/svg" xmlns:xlink="http://www.w3.org/1999/xlink" x="0px" y="0px"
	 viewBox="0 0 38 38" enable-background="new 0 0 38 38" xml:space="preserve">
<g>
	<path fill="#8F95A0" d="M22.5,31.6h-17v-22c0-2.2,1.8-4,4-4h9c2.2,0,4,1.8,4,4V31.6z M7.5,29.6h13v-20c0-1.1-0.9-2-2-2h-9
		c-1.1,0-2,0.9-2,2V29.6z"/>
</g>
<g>
	<path fill="#8F95A0" d="M25,33.3H3v-2c0-0.6,0.4-1,1-1h20c0.6,0,1,0.4,1,1V33.3z"/>
</g>
<g>
	<path fill="#8F95A0" d="M17.5,15.6h-7c-0.6,0-1-0.4-1-1v-4c0-0.6,0.4-1,1-1h7c0.6,0,1,0.4,1,1v4C18.5,15.1,18.1,15.6,17.5,15.6z"/>
</g>
<g>
	<path fill="#8F95A0" d="M27.5,28c-1.9,0-3.5-1.6-3.5-3.5v-3c0-0.8-0.7-1.5-1.5-1.5H22v-2h0.5c1.9,0,3.5,1.6,3.5,3.5v3
		c0,0.8,0.7,1.5,1.5,1.5s1.5-0.7,1.5-1.5V12h2v12.5C31,26.4,29.4,28,27.5,28z"/>
</g>
<g>
	<path fill="#8F95A0" d="M16.5,24.6c0,1.4-1.1,2.5-2.5,2.5s-2.5-1.1-2.5-2.5S14,19,14,19S16.5,23.2,16.5,24.6z"/>
</g>
<g>
	<path fill="#8F95A0" d="M33.3,14.6H30c-0.6,0-1-0.4-1-1V9.5C29,7.6,30.6,6,32.5,6h0.8c0.6,0,1,0.4,1,1v6.6
		C34.3,14.2,33.8,14.6,33.3,14.6z M31,12.6h1.3V8C31.5,8.1,31,8.8,31,9.5V12.6z"/>
</g>
<g>
	<path fill="#8F95A0" d="M36,8h-3c-0.6,0-1-0.4-1-1s0.4-1,1-1h3c0.6,0,1,0.4,1,1S36.6,8,36,8z"/>
</g>
</svg>
